<svg xmlns:svg="http://www.w3.org/2000/svg" xmlns="http://www.w3.org/2000/svg" width="24" height="24" version="1.1">
<g transform="translate(0,-1028.3622)">
	<g transform="translate(72,-238)">
		<g transform="translate(-72,262)">
			<g transform="translate(-101.99314,703.00001)">
				<path d="m114.49 304.36c-3.23 0-6.5 3-6.5 6.5 0 3.5 5 9.5 6.5 11.5 1.5-2 6.5-8 6.5-11.5 0-3.5-3.27-6.5-6.5-6.5zm0 2c2.51 0 4.5 1.78 4.5 4.5 0 2.72-3.33 6.94-4.5 8.5-1.17-1.56-4.5-5.78-4.5-8.5 0-2.72 1.99-4.5 4.5-4.5z" style="fill:#fff;opacity:0.3;stroke-linejoin:round;stroke-width:0;stroke:#fff"/>
				<path d="m114.49 304.36c-3.23 0-6.5 3-6.5 6.5 0 3.5 5 9.5 6.5 11.5 1.5-2 6.5-8 6.5-11.5 0-3.5-3.27-6.5-6.5-6.5zm0 2c2.51 0 4.5 1.78 4.5 4.5 0 2.72-3.33 6.94-4.5 8.5-1.17-1.56-4.5-5.78-4.5-8.5 0-2.72 1.99-4.5 4.5-4.5z" fill="#fff"/></g>
			</g>
		<rect width="24" height="24" x="-72" y="1266.36" style="fill:none;opacity:0.5"/>
	</g>
</g>
</svg>