<svg xmlns:svg="http://www.w3.org/2000/svg" xmlns="http://www.w3.org/2000/svg" width="24" height="24" version="1.1"><g transform="translate(0,-1028.3622)"><path transform="translate(0,1028.3622)" d="M14.5 2C13.7 2 13 2.7 13 3.5 13 4.3 13.7 5 14.5 5 15.3 5 16 4.3 16 3.5 16 2.7 15.3 2 14.5 2zM8.5 5C7.7 5 7 5.7 7 6.5 7 7.3 7.7 8 8.5 8 9.3 8 10 7.3 10 6.5 10 5.7 9.3 5 8.5 5zM15.9 5.5C15.7 5.5 15.6 5.8 15.5 6L13.5 11.7 10.3 12.7 7.9 8.9C7.6 8.3 7.2 8.4 7 8.9L5.1 14.3 3 15 3.6 16.8 8.2 15.3 6.2 17.7C5.9 18 6 18.5 6.2 18.8 6.5 19 6.9 19.2 7.3 18.8 7.3 18.8 11.4 14.1 11 14.5 11 14.5 11 14.5 11 14.5L12.5 14 10 20 16 20 13.6 13.7 15 13.2 18.8 15.9C19.2 16.1 19.9 16 20 15.5 20.1 15 19.8 14.7 19.5 14.5L16.8 12.6 22 11 21.4 9.2 19.4 9.8C18.7 8.6 17 6.5 16.6 6 16.3 5.5 16 5.4 15.9 5.5z" style="fill:none;opacity:0.3;stroke-width:0;stroke:#fff"/><path d="M14.5 2C13.7 2 13 2.7 13 3.5 13 4.3 13.7 5 14.5 5 15.3 5 16 4.3 16 3.5 16 2.7 15.3 2 14.5 2zM8.5 5C7.7 5 7 5.7 7 6.5 7 7.3 7.7 8 8.5 8 9.3 8 10 7.3 10 6.5 10 5.7 9.3 5 8.5 5zM15.9 5.5C15.7 5.5 15.6 5.8 15.5 6L13.5 11.7 10.3 12.7 7.9 8.9C7.6 8.3 7.2 8.4 7 8.9L5.1 14.3 3 15 3.6 16.8 8.2 15.3 6.2 17.7C5.9 18 6 18.5 6.2 18.8 6.5 19 6.9 19.2 7.3 18.8 7.3 18.8 11.4 14.1 11 14.5 11 14.5 11 14.5 11 14.5L12.5 14 10 20 16 20 13.6 13.7 15 13.2 18.8 15.9C19.2 16.1 19.9 16 20 15.5 20.1 15 19.8 14.7 19.5 14.5L16.8 12.6 22 11 21.4 9.2 19.4 9.8C18.7 8.6 17 6.5 16.6 6 16.3 5.5 16 5.4 15.9 5.5z" transform="translate(0,1028.3622)" fill="#fff"/></g></svg>