<svg xmlns:svg="http://www.w3.org/2000/svg" xmlns="http://www.w3.org/2000/svg" width="24" height="24" version="1.1"><g transform="translate(0,-1028.3622)"><g transform="translate(-476,-237.99998)"><g transform="translate(2,0)"><path d="m484.5 1269.4c-0.5 0-0.8 0.5-1 1l-5.3 16c0 0.1-0.2 0.4-0.2 0.5 0 0.5 0.5 0.5 1 0.5 0.5 0 1 0 1.2-0.5l0.8-2.2 5.5-2.7 5.5 2.8 0.8 2.3c0.2 0.5 0.7 0.5 1.2 0.5 0.5 0 1 0 1-0.5 0-0.1-0.1-0.4-0.2-0.5L489.5 1270.4c-0.2-0.5-0.5-1-1-1zm4.5 7 0.7 1.9-3.2 1.6-3.2-1.6 0.7-1.9zm-6.3 3.6 1.8 0.9-2.6 1.3zm7.6 0 0.8 2.2-2.6-1.3z" style="fill:#fff;opacity:0.3;stroke-linecap:round;stroke-linejoin:round;stroke-width:0;stroke:#fff"/><path d="m484.5 1269.4c-0.5 0-0.8 0.5-1 1l-5.3 16c0 0.1-0.2 0.4-0.2 0.5 0 0.5 0.5 0.5 1 0.5 0.5 0 1 0 1.2-0.5l0.8-2.2 5.5-2.7 5.5 2.8 0.8 2.3c0.2 0.5 0.7 0.5 1.2 0.5 0.5 0 1 0 1-0.5 0-0.1-0.1-0.4-0.2-0.5L489.5 1270.4c-0.2-0.5-0.5-1-1-1zm4.5 7 0.7 1.9-3.2 1.6-3.2-1.6 0.7-1.9zm-6.3 3.6 1.8 0.9-2.6 1.3zm7.6 0 0.8 2.2-2.6-1.3z" fill="#fff"/></g><rect width="24" height="24" x="476" y="1266.4" style="fill:none;opacity:0.5"/></g></g></svg>