<svg xmlns:svg="http://www.w3.org/2000/svg" xmlns="http://www.w3.org/2000/svg" width="24" height="24" version="1.1"><g transform="translate(0,-1028.3622)"><g transform="translate(-84,-358)"><path d="m98.875 1390.3622c-0.56154 0.076-0.63714 1.0579-0.09375 1.2188l2.21875 0.875 0 1.9062-7 0 0-1 1.375 0c0.33019 0 0.625-0.2948 0.625-0.625 0-0.3302-0.29481-0.6297-0.625-0.625l-3.875 0c-0.062-0.01-0.12547-0.01-0.1875 0-0.32727 0.049-0.58034 0.3915-0.53125 0.7188 0.0491 0.3272 0.39149 0.5803 0.71875 0.5312l1.5 0 0 1-1.0625 3.125c-0.29968-0.072-0.61585-0.125-0.9375-0.125-2.20914 0-4 1.7909-4 4 0 2.2091 1.79086 4 4 4 2.20914 0 4-1.7909 4-4 0-0.3004-0.06221-0.5935-0.125-0.875l1.125 0c0.19854-0.01 0.39085-0.1152 0.5-0.2812l3.375-4.8438 0.125 0 1 0 0.6875 2.0313c-2.06189 0.1606-3.6875 1.8656-3.6875 3.9687 0 2.2091 1.79086 4 4 4 2.20914 0 4-1.7909 4-4 0-1.8282-1.23109-3.3352-2.90625-3.8125L102 1394.3622l0-2.3437c0-0.1049-0.0423-0.211-0.0937-0.3125-0.004-0.01 0.004-0.024 0-0.031-0.0149-0.032-0.0429-0.064-0.0625-0.094-0.032-0.045-0.0546-0.086-0.0937-0.125-0.0169-0.016-0.044-0.017-0.0625-0.031-0.0183-0.015-0.0433-0.018-0.0625-0.031-0.0324-0.019-0.0577-0.05-0.0937-0.062l-0.0312-0.031-0.4375-0.1562-1.84375-0.75c-0.06501-0.025-0.14929-0.028-0.21875-0.031-0.047 0-0.0788-0.011-0.125 0zm-4.875 5 4.40625 0-2.71875 3.875-1.3125 0c-0.30967-0.4941-0.69912-0.9009-1.1875-1.2187L94 1395.3622zm-3 3.5c1.38071 0 2.5 1.1193 2.5 2.5 0 1.3807-1.11929 2.5-2.5 2.5-1.38071 0-2.5-1.1193-2.5-2.5 0-1.3807 1.11929-2.5 2.5-2.5zm11 0c1.38071 0 2.5 1.1193 2.5 2.5 0 1.3807-1.11929 2.5-2.5 2.5-1.38071 0-2.5-1.1193-2.5-2.5 0-0.1726 0.0292-0.3373 0.0625-0.5 0.23312-1.1392 1.22938-2 2.4375-2z" style="fill:#fff;opacity:0.3;stroke-linejoin:round;stroke-width:0;stroke:#fff"/><path d="m98.875 1390.3622c-0.56154 0.076-0.63714 1.0579-0.09375 1.2188l2.21875 0.875 0 1.9062-7 0 0-1 1.375 0c0.33019 0 0.625-0.2948 0.625-0.625 0-0.3302-0.29481-0.6297-0.625-0.625l-3.875 0c-0.062-0.01-0.12547-0.01-0.1875 0-0.32727 0.049-0.58034 0.3915-0.53125 0.7188 0.0491 0.3272 0.39149 0.5803 0.71875 0.5312l1.5 0 0 1-1.0625 3.125c-0.29968-0.072-0.61585-0.125-0.9375-0.125-2.20914 0-4 1.7909-4 4 0 2.2091 1.79086 4 4 4 2.20914 0 4-1.7909 4-4 0-0.3004-0.06221-0.5935-0.125-0.875l1.125 0c0.19854-0.01 0.39085-0.1152 0.5-0.2812l3.375-4.8438 0.125 0 1 0 0.6875 2.0313c-2.06189 0.1606-3.6875 1.8656-3.6875 3.9687 0 2.2091 1.79086 4 4 4 2.20914 0 4-1.7909 4-4 0-1.8282-1.23109-3.3352-2.90625-3.8125L102 1394.3622l0-2.3437c0-0.1049-0.0423-0.211-0.0937-0.3125-0.004-0.01 0.004-0.024 0-0.031-0.0149-0.032-0.0429-0.064-0.0625-0.094-0.032-0.045-0.0546-0.086-0.0937-0.125-0.0169-0.016-0.044-0.017-0.0625-0.031-0.0183-0.015-0.0433-0.018-0.0625-0.031-0.0324-0.019-0.0577-0.05-0.0937-0.062l-0.0312-0.031-0.4375-0.1562-1.84375-0.75c-0.06501-0.025-0.14929-0.028-0.21875-0.031-0.047 0-0.0788-0.011-0.125 0zm-4.875 5 4.40625 0-2.71875 3.875-1.3125 0c-0.30967-0.4941-0.69912-0.9009-1.1875-1.2187L94 1395.3622zm-3 3.5c1.38071 0 2.5 1.1193 2.5 2.5 0 1.3807-1.11929 2.5-2.5 2.5-1.38071 0-2.5-1.1193-2.5-2.5 0-1.3807 1.11929-2.5 2.5-2.5zm11 0c1.38071 0 2.5 1.1193 2.5 2.5 0 1.3807-1.11929 2.5-2.5 2.5-1.38071 0-2.5-1.1193-2.5-2.5 0-0.1726 0.0292-0.3373 0.0625-0.5 0.23312-1.1392 1.22938-2 2.4375-2z" fill="#fff"/><rect width="24" height="23.99996" x="84" y="1386.3622" rx="0" ry="0" style="fill:none;opacity:0.3"/></g></g></svg>