<?xml version="1.0" encoding="utf-8"?>
<!-- Generator: Adobe Illustrator 16.0.0, SVG Export Plug-In . SVG Version: 6.00 Build 0)  -->
<!DOCTYPE svg PUBLIC "-//W3C//DTD SVG 1.1//EN" "http://www.w3.org/Graphics/SVG/1.1/DTD/svg11.dtd">
<svg version="1.1" id="Layer_1" xmlns:svg="http://www.w3.org/2000/svg"
	 xmlns="http://www.w3.org/2000/svg" xmlns:xlink="http://www.w3.org/1999/xlink" x="0px" y="0px" width="24px" height="24px"
	 viewBox="0 0 24 24" enable-background="new 0 0 24 24" xml:space="preserve">
<g>
	<path fill="#FFFFFF" d="M3.289,3.214c-0.639,0-1.161,0.522-1.161,1.161v15.097c0,0.638,0.522,1.161,1.161,1.161h15.096
		c0.64,0,1.161-0.523,1.161-1.161v-6.967h-2.322v5.806H4.45V5.537h9.29V3.214H3.289z"/>
	<path fill="#FFFFFF" d="M18.827,2.7l-7.398,8.861L9.293,9.052c-0.627-0.731-1.87-0.824-2.59-0.186
		c-0.72,0.627-0.569,1.823-0.023,2.474l3.473,4.098c0.662,0.755,2.009,0.733,2.647-0.033l8.721-10.486
		c0.36-0.511,0.499-1.452,0.222-1.951c-0.338-0.604-1-0.941-1.604-0.906c-0.581,0.035-1.021,0.291-1.299,0.651L18.827,2.7z"/>
</g>
</svg>
