<?xml version="1.0" encoding="utf-8"?>
<!-- Generator: Adobe Illustrator 17.0.0, SVG Export Plug-In . SVG Version: 6.00 Build 0)  -->
<!DOCTYPE svg PUBLIC "-//W3C//DTD SVG 1.1//EN" "http://www.w3.org/Graphics/SVG/1.1/DTD/svg11.dtd">
<svg version="1.1" id="Layer_1" xmlns="http://www.w3.org/2000/svg" xmlns:xlink="http://www.w3.org/1999/xlink" x="0px" y="0px"
	 width="2551.181px" height="754.804px" viewBox="0 0 2551.181 754.804" enable-background="new 0 0 2551.181 754.804"
	 xml:space="preserve">
<g>
	<g>
		<path fill-rule="evenodd" clip-rule="evenodd" d="M542.114,504.713c-44.713-41.655-94.555-80.021-134.21-126.985
			c-54.673-64.753-40.772-163.125,23.306-219.097c64.693-56.51,161.012-53.15,222.637,7.762
			c62.369,61.653,68.267,154.121,9.806,219.212C624.669,429.015,580.32,467.605,542.114,504.713z M620.647,282.198
			c0.136-45.913-35.705-82.285-81.457-82.657c-45.851-0.376-82.429,35.288-83.135,81.056c-0.716,46.406,36.427,84.2,82.595,84.051
			C584.046,364.499,620.511,327.834,620.647,282.198z"/>
		<path fill-rule="evenodd" clip-rule="evenodd" d="M1003.262,391.937c-65.771,70.136-157.954,49.571-202.341,2.954
			c-54.716-57.466-58.031-163.443-5.114-221.07c57.108-62.191,132.619-63.809,208.456-2.019c0-54.499,0-106.714,0-160.435
			c22.191,0,41.473,0,62.171,0c0,139.998,0,279.318,0,420.297c-19.522,0-38.811,0-59.715,0
			C1005.631,419.168,1004.538,406.618,1003.262,391.937z M1005.893,283.502c0.308-58.927-39.417-103.793-91.65-103.516
			c-52.308,0.281-93.088,45.392-93.047,102.932c0.041,55.922,40.846,99.336,93.616,99.605
			C966.425,382.784,1005.598,340.198,1005.893,283.502z"/>
		<path fill-rule="evenodd" clip-rule="evenodd" d="M246.573,11.06c23.385,0,42.162,0,62.218,0c0,140.623,0,280.001,0,420.819
			c-20.091,0-39.379,0-60.381,0c-0.602-12.571-1.163-24.305-2.021-42.234c-32.037,37.923-70.489,51.346-114.622,47.584
			c-45.158-3.848-79.901-26.523-105.098-63.424C-16.43,310.683-5.959,212.919,48.457,163.716
			c58.318-52.728,127.745-50.758,198.116,8.126C246.573,117.166,246.573,64.939,246.573,11.06z M248.59,283.568
			c0.524-57.598-38.399-102.547-89.678-103.569c-52.343-1.043-94.692,43.662-95.407,100.718
			c-0.716,57.052,40.205,101.513,93.694,101.807C208.737,382.805,248.075,340.21,248.59,283.568z"/>
		<path fill-rule="evenodd" clip-rule="evenodd" d="M1362.386,309.028c3.55,35.879,23.511,54.147,50.664,66.11
			c41.713,18.38,87.432,9.749,131.603-25.075c5.429,5.71,11.122,11.528,16.622,17.519c5.611,6.12,11.036,12.413,17.589,19.816
			c-42.934,42.975-94.002,55.823-150.273,48.47c-66.337-8.664-115.556-56.547-126.455-119.14
			c-13.191-75.768,13.799-138.666,73.922-172.245c57.048-31.865,133.638-23.697,182.014,19.017
			c41.792,36.897,44.436,85.847,41.411,136.071c-0.211,3.521-12.401,8.967-19.067,9.041c-64.165,0.687-128.343,0.414-192.516,0.414
			C1380.278,309.028,1372.652,309.028,1362.386,309.028z M1535.751,258.658c0.915-49.902-33.152-80.125-85.255-79.673
			c-43.915,0.38-94.541,37.157-85.913,79.673C1421.006,258.658,1477.715,258.658,1535.751,258.658z"/>
		<path fill-rule="evenodd" clip-rule="evenodd" d="M1878.035,157.791c-7.084,13.882-14.329,28.079-19.216,37.654
			c-30.98-6.186-58.661-13.121-86.765-16.621c-10.978-1.366-24.128,2.789-34.157,8.3c-20.412,11.217-19.212,36.847,1.754,46.906
			c11.317,5.425,24.144,7.614,36.053,11.913c23.147,8.362,46.683,15.947,69.064,26.052c59.655,26.937,50.622,111.232,10.672,140.64
			c-24.471,18.012-51.557,25.253-81.283,25.084c-45.462-0.253-98.297-19.175-128.235-46.836
			c9.264-14.946,18.753-30.243,26.263-42.35c29.792,11.735,56.423,24.889,84.568,32.238c15.132,3.952,34.29,1.527,49.108-4.365
			c24.434-9.716,25.894-37.828,3.244-51.081c-16.816-9.84-36.14-15.393-54.325-22.907c-17.544-7.245-36.251-12.566-52.372-22.203
			c-51.069-30.533-53.287-94.611-5.565-130.44C1744.049,114.331,1830.794,117.704,1878.035,157.791z"/>
		<path fill-rule="evenodd" clip-rule="evenodd" d="M2237.933,129.757c19.837,0,37.402-1.39,54.524,0.761
			c5.917,0.741,12.968,9.368,15.695,15.964c25.841,62.526,50.845,125.396,76.132,188.154c2.603,6.455,5.466,12.802,9.914,23.184
			c4.129-8.056,7.113-12.914,9.219-18.128c25.377-62.721,51.193-125.272,75.507-188.399c6.215-16.146,13.742-24.218,31.803-21.91
			c12.455,1.589,25.278,0.306,40.455,0.306c-2.325,7.547-3.691,13.452-5.921,19.013c-35.664,88.967-71.7,177.789-106.909,266.938
			c-5.127,12.976-11.222,18.227-25.886,18.09c-53.39-0.497-53.39,0.133-73.702-50.423c-30.74-76.516-61.513-153.02-92.203-229.553
			C2243.751,146.755,2241.438,139.555,2237.933,129.757z"/>
		<path fill-rule="evenodd" clip-rule="evenodd" d="M2122.385,10.982c20.648,0,39.409,0,59.651,0c0,140.458,0,279.753,0,420.695
			c-19.584,0-38.85,0-59.651,0C2122.385,291.868,2122.385,152.565,2122.385,10.982z"/>
		<path fill-rule="evenodd" clip-rule="evenodd" d="M1163.308,130.941c5.333-0.488,9.413-1.142,13.502-1.179
			c14.747-0.128,29.498-0.05,46.013-0.05c0,101.161,0,200.882,0,302.113c-19.493,0-38.784,0-59.514,0
			C1163.308,331.893,1163.308,232.664,1163.308,130.941z"/>
		<path fill-rule="evenodd" clip-rule="evenodd" d="M1994.878,353.989c23.18,0.426,41.155,18.761,41.01,41.825
			c-0.149,23.73-19.791,42.661-43.381,41.8c-22.82-0.831-40.087-19.63-39.599-43.12
			C1953.397,371.053,1971.516,353.559,1994.878,353.989z"/>
		<path fill-rule="evenodd" clip-rule="evenodd" d="M1233.394,39.503c0.136,21.686-16.634,39.106-38.262,39.744
			c-22.274,0.658-41.035-17.221-41.175-39.239c-0.141-21.905,18.711-40.447,40.667-40
			C1215.966,0.443,1233.257,18.061,1233.394,39.503z"/>
	</g>
	<g>
		<path d="M378.166,590.367h15.482v106.956h51.253v12.991h-66.736V590.367z"/>
		<path d="M509.32,710.314l-1.246-10.855h-0.534c-4.805,6.763-14.059,12.813-26.338,12.813c-17.44,0-26.339-12.28-26.339-24.737
			c0-20.821,18.508-32.211,51.788-32.033v-1.78c0-7.118-1.958-19.932-19.576-19.932c-8.008,0-16.373,2.491-22.423,6.407
			l-3.559-10.322c7.119-4.627,17.44-7.652,28.296-7.652c26.339,0,32.746,17.975,32.746,35.236v32.212
			c0,7.475,0.356,14.771,1.423,20.644H509.32z M507.006,666.357c-17.084-0.355-36.482,2.67-36.482,19.398
			c0,10.144,6.762,14.948,14.771,14.948c11.211,0,18.33-7.118,20.821-14.415c0.534-1.602,0.89-3.381,0.89-4.982V666.357z"/>
		<path d="M565.554,599.443v24.737h22.423v11.923h-22.423v46.448c0,10.679,3.025,16.729,11.746,16.729
			c4.093,0,7.119-0.533,9.076-1.067l0.712,11.746c-3.025,1.245-7.831,2.135-13.881,2.135c-7.296,0-13.169-2.313-16.906-6.584
			c-4.449-4.627-6.051-12.279-6.051-22.424v-46.982h-13.348v-11.923h13.348v-20.645L565.554,599.443z"/>
		<path d="M613.243,624.181l16.907,48.405c2.847,7.831,5.161,14.949,6.94,22.067h0.534c1.958-7.118,4.449-14.236,7.297-22.067
			l16.729-48.405h16.373l-33.813,86.134h-14.949l-32.745-86.134H613.243z"/>
		<path d="M710.228,599.977c0.178,5.339-3.737,9.609-9.966,9.609c-5.517,0-9.432-4.271-9.432-9.609c0-5.518,4.093-9.788,9.788-9.788
			C706.491,590.189,710.228,594.46,710.228,599.977z M692.788,710.314v-86.134h15.661v86.134H692.788z"/>
		<path d="M713.429,735.229c7.119-0.534,13.347-2.491,17.084-6.585c4.271-4.982,5.873-11.745,5.873-32.39v-72.074h15.661v78.125
			c0,16.729-2.669,27.585-10.322,35.415c-6.94,6.94-18.33,9.788-26.694,9.788L713.429,735.229z M753.827,599.977
			c0.178,5.16-3.559,9.609-9.788,9.609c-5.873,0-9.61-4.449-9.61-9.609c0-5.518,4.093-9.788,9.966-9.788
			C750.089,590.189,753.827,594.46,753.827,599.977z"/>
		<path d="M825.367,710.314l-1.246-10.855h-0.534c-4.805,6.763-14.059,12.813-26.338,12.813c-17.44,0-26.339-12.28-26.339-24.737
			c0-20.821,18.508-32.211,51.788-32.033v-1.78c0-7.118-1.958-19.932-19.576-19.932c-8.008,0-16.373,2.491-22.423,6.407
			l-3.559-10.322c7.119-4.627,17.44-7.652,28.296-7.652c26.339,0,32.746,17.975,32.746,35.236v32.212
			c0,7.475,0.356,14.771,1.423,20.644H825.367z M823.053,666.357c-17.084-0.355-36.482,2.67-36.482,19.398
			c0,10.144,6.762,14.948,14.771,14.948c11.211,0,18.33-7.118,20.821-14.415c0.534-1.602,0.89-3.381,0.89-4.982V666.357z"/>
		<path d="M861.312,694.298c4.627,3.025,12.813,6.229,20.644,6.229c11.39,0,16.729-5.694,16.729-12.813
			c0-7.475-4.449-11.567-16.017-15.839c-15.483-5.517-22.779-14.059-22.779-24.381c0-13.881,11.211-25.271,29.72-25.271
			c8.72,0,16.373,2.491,21.178,5.339l-3.915,11.39c-3.381-2.136-9.61-4.983-17.619-4.983c-9.254,0-14.415,5.339-14.415,11.746
			c0,7.118,5.161,10.322,16.373,14.593c14.949,5.695,22.602,13.169,22.602,25.982c0,15.127-11.746,25.805-32.211,25.805
			c-9.432,0-18.152-2.313-24.203-5.872L861.312,694.298z"/>
		<path d="M1046.033,583.961v104.108c0,7.652,0.178,16.372,0.712,22.245h-14.059l-0.712-14.949h-0.356
			c-4.805,9.61-15.305,16.907-29.364,16.907c-20.822,0-36.838-17.619-36.838-43.779c-0.178-28.652,17.618-46.271,38.618-46.271
			c13.169,0,22.067,6.229,25.982,13.169h0.356v-51.431H1046.033z M1030.372,659.239c0-1.958-0.178-4.627-0.712-6.585
			c-2.313-9.966-10.856-18.152-22.602-18.152c-16.194,0-25.804,14.237-25.804,33.279c0,17.44,8.542,31.855,25.449,31.855
			c10.5,0,20.11-6.94,22.957-18.687c0.534-2.135,0.712-4.271,0.712-6.763V659.239z"/>
		<path d="M1119.706,710.314l-1.246-10.855h-0.534c-4.805,6.763-14.059,12.813-26.338,12.813c-17.44,0-26.339-12.28-26.339-24.737
			c0-20.821,18.508-32.211,51.788-32.033v-1.78c0-7.118-1.958-19.932-19.576-19.932c-8.008,0-16.373,2.491-22.423,6.407
			l-3.559-10.322c7.119-4.627,17.44-7.652,28.296-7.652c26.339,0,32.746,17.975,32.746,35.236v32.212
			c0,7.475,0.356,14.771,1.423,20.644H1119.706z M1117.392,666.357c-17.084-0.355-36.482,2.67-36.482,19.398
			c0,10.144,6.762,14.948,14.771,14.948c11.211,0,18.33-7.118,20.821-14.415c0.534-1.602,0.89-3.381,0.89-4.982V666.357z"/>
		<path d="M1157.075,710.314c0.356-5.873,0.712-14.593,0.712-22.245V583.961h15.483v54.101h0.356
			c5.517-9.61,15.483-15.839,29.364-15.839c21.356,0,36.482,17.796,36.305,43.957c0,30.787-19.398,46.093-38.618,46.093
			c-12.458,0-22.423-4.806-28.83-16.195h-0.534l-0.712,14.237H1157.075z M1173.27,675.79c0,1.957,0.356,3.915,0.712,5.694
			c3.025,10.855,12.102,18.33,23.491,18.33c16.373,0,26.161-13.347,26.161-33.101c0-17.263-8.898-32.034-25.627-32.034
			c-10.678,0-20.644,7.297-23.847,19.221c-0.356,1.779-0.89,3.915-0.89,6.406V675.79z"/>
		<path d="M1306.736,710.314l-1.245-10.855h-0.534c-4.805,6.763-14.059,12.813-26.339,12.813c-17.44,0-26.338-12.28-26.338-24.737
			c0-20.821,18.508-32.211,51.788-32.033v-1.78c0-7.118-1.958-19.932-19.576-19.932c-8.008,0-16.373,2.491-22.423,6.407
			l-3.559-10.322c7.119-4.627,17.44-7.652,28.296-7.652c26.339,0,32.745,17.975,32.745,35.236v32.212
			c0,7.475,0.356,14.771,1.424,20.644H1306.736z M1304.423,666.357c-17.084-0.355-36.482,2.67-36.482,19.398
			c0,10.144,6.762,14.948,14.771,14.948c11.212,0,18.33-7.118,20.821-14.415c0.534-1.602,0.89-3.381,0.89-4.982V666.357z"/>
		<path d="M1342.682,694.298c4.627,3.025,12.813,6.229,20.644,6.229c11.39,0,16.729-5.694,16.729-12.813
			c0-7.475-4.449-11.567-16.018-15.839c-15.482-5.517-22.779-14.059-22.779-24.381c0-13.881,11.212-25.271,29.721-25.271
			c8.72,0,16.372,2.491,21.177,5.339l-3.915,11.39c-3.381-2.136-9.609-4.983-17.618-4.983c-9.254,0-14.415,5.339-14.415,11.746
			c0,7.118,5.161,10.322,16.373,14.593c14.948,5.695,22.601,13.169,22.601,25.982c0,15.127-11.745,25.805-32.211,25.805
			c-9.432,0-18.152-2.313-24.203-5.872L1342.682,694.298z"/>
		<path d="M1471.878,599.443v24.737h22.423v11.923h-22.423v46.448c0,10.679,3.025,16.729,11.745,16.729
			c4.094,0,7.119-0.533,9.076-1.067l0.712,11.746c-3.025,1.245-7.83,2.135-13.881,2.135c-7.297,0-13.169-2.313-16.906-6.584
			c-4.449-4.627-6.051-12.279-6.051-22.424v-46.982h-13.348v-11.923h13.348v-20.645L1471.878,599.443z"/>
		<path d="M1559.611,710.314l-1.246-10.855h-0.533c-4.806,6.763-14.06,12.813-26.339,12.813c-17.44,0-26.339-12.28-26.339-24.737
			c0-20.821,18.509-32.211,51.787-32.033v-1.78c0-7.118-1.957-19.932-19.575-19.932c-8.009,0-16.373,2.491-22.424,6.407
			l-3.56-10.322c7.119-4.627,17.44-7.652,28.297-7.652c26.338,0,32.745,17.975,32.745,35.236v32.212
			c0,7.475,0.355,14.771,1.424,20.644H1559.611z M1557.298,666.357c-17.085-0.355-36.482,2.67-36.482,19.398
			c0,10.144,6.763,14.948,14.771,14.948c11.212,0,18.33-7.118,20.822-14.415c0.533-1.602,0.89-3.381,0.89-4.982V666.357z"/>
		<path d="M1613.175,663.688h0.356c2.136-3.025,5.161-6.763,7.652-9.788l25.271-29.72h18.864l-33.279,35.414l37.906,50.72h-19.042
			l-29.72-41.287l-8.009,8.897v32.39h-15.482V583.961h15.482V663.688z"/>
		<path d="M1753.94,686.823c0,8.898,0.178,16.729,0.712,23.491h-13.881l-0.89-14.06h-0.356
			c-4.093,6.941-13.169,16.018-28.474,16.018c-13.525,0-29.721-7.475-29.721-37.729v-50.363h15.661v47.693
			c0,16.373,4.983,27.406,19.22,27.406c10.5,0,17.797-7.296,20.645-14.236c0.89-2.313,1.423-5.161,1.423-8.009v-52.854h15.661
			V686.823z"/>
		<path d="M1833.128,663.688h0.356c2.136-3.025,5.161-6.763,7.652-9.788l25.271-29.72h18.864l-33.279,35.414l37.906,50.72h-19.042
			l-29.72-41.287l-8.009,8.897v32.39h-15.482V583.961h15.482V663.688z"/>
		<path d="M1952.003,710.314l-1.246-10.855h-0.533c-4.806,6.763-14.06,12.813-26.339,12.813c-17.44,0-26.339-12.28-26.339-24.737
			c0-20.821,18.509-32.211,51.787-32.033v-1.78c0-7.118-1.957-19.932-19.575-19.932c-8.009,0-16.373,2.491-22.424,6.407
			l-3.56-10.322c7.119-4.627,17.44-7.652,28.297-7.652c26.338,0,32.745,17.975,32.745,35.236v32.212
			c0,7.475,0.355,14.771,1.424,20.644H1952.003z M1949.689,666.357c-17.085-0.355-36.482,2.67-36.482,19.398
			c0,10.144,6.763,14.948,14.771,14.948c11.212,0,18.33-7.118,20.822-14.415c0.533-1.602,0.89-3.381,0.89-4.982V666.357z"/>
		<path d="M1990.084,651.053c0-10.144-0.178-18.864-0.712-26.872h13.703l0.534,16.906h0.712
			c3.915-11.567,13.347-18.864,23.847-18.864c1.78,0,3.025,0.178,4.449,0.534v14.771c-1.602-0.355-3.203-0.534-5.339-0.534
			c-11.033,0-18.864,8.364-21,20.11c-0.355,2.136-0.711,4.627-0.711,7.297v45.914h-15.483V651.053z"/>
		<path d="M2071.408,599.443v24.737h22.423v11.923h-22.423v46.448c0,10.679,3.025,16.729,11.745,16.729
			c4.094,0,7.119-0.533,9.076-1.067l0.712,11.746c-3.025,1.245-7.83,2.135-13.881,2.135c-7.297,0-13.169-2.313-16.906-6.584
			c-4.449-4.627-6.051-12.279-6.051-22.424v-46.982h-13.348v-11.923h13.348v-20.645L2071.408,599.443z"/>
		<path d="M2119.101,670.095c0.355,21.178,13.881,29.897,29.541,29.897c11.212,0,17.975-1.957,23.848-4.448l2.669,11.211
			c-5.517,2.492-14.948,5.339-28.651,5.339c-26.517,0-42.355-17.44-42.355-43.423s15.305-46.448,40.397-46.448
			c28.118,0,35.593,24.737,35.593,40.575c0,3.204-0.355,5.695-0.534,7.297H2119.101z M2165.015,658.883
			c0.178-9.966-4.093-25.448-21.712-25.448c-15.838,0-22.779,14.593-24.024,25.448H2165.015z"/>
	</g>
</g>
</svg>
