<?xml version="1.0" encoding="utf-8"?>
<!-- Generator: Adobe Illustrator 16.0.0, SVG Export Plug-In . SVG Version: 6.00 Build 0)  -->
<!DOCTYPE svg PUBLIC "-//W3C//DTD SVG 1.1//EN" "http://www.w3.org/Graphics/SVG/1.1/DTD/svg11.dtd">
<svg version="1.1" id="Layer_1" xmlns="http://www.w3.org/2000/svg" xmlns:xlink="http://www.w3.org/1999/xlink" x="0px" y="0px"
	 width="24px" height="24px" viewBox="0 0 24 24" enable-background="new 0 0 24 24" xml:space="preserve">
<path fill="none" stroke="#FFFFFF" stroke-width="2" stroke-linecap="round" stroke-linejoin="round" d="M21.75,12.5
	c0,5.35-4.4,9.75-9.75,9.75c-5.35,0-9.75-4.4-9.75-9.75c0-5.35,4.4-9.75,9.75-9.75C17.35,2.75,21.75,7.15,21.75,12.5z"/>
<path fill="#FFFFFF" d="M10.464,12.302c0-0.702,0.78-0.819,1.58-1.034c0.779-0.213,1.56-0.524,1.56-1.656
	c0-0.857-0.799-1.481-1.617-1.481c-1.639,0-1.891,1.933-3.141,1.933c-0.701,0-1.188-0.547-1.188-1.404
	c0-2.049,2.572-3.219,4.328-3.219c2.518,0,4.661,1.561,4.661,4.174c0,2.164-1.363,3.433-3.373,3.938v0.702
	c0,0.78-0.586,1.347-1.403,1.347c-0.877,0-1.404-0.564-1.404-1.347L10.464,12.302L10.464,12.302z M10.348,18.27
	c0-0.84,0.682-1.521,1.521-1.521c0.839,0,1.521,0.685,1.521,1.521c0,0.838-0.685,1.521-1.521,1.521
	C11.029,19.79,10.348,19.107,10.348,18.27z"/>
<rect x="-50.5" y="-15.5" fill="#FF82FF" width="0" height="0.25"/>
</svg>
