<svg xmlns:svg="http://www.w3.org/2000/svg" xmlns="http://www.w3.org/2000/svg" width="24" height="24" version="1.1"><g transform="translate(0,-1028.3622)"><g transform="translate(-162,-190)"><g transform="translate(162,213)"><path transform="translate(0,1004.3622)" d="M12.5 5C12 5 11.8 5.2 11.6 5.5L5.4 17 4.1 17C3.5 17 3 17.4 3 18c0 0.6 0.5 1 1.1 1L6 19l13 0 1.9 0C21.5 19 22 18.6 22 18 22 17.4 21.5 17 20.9 17L19.6 17 13.4 5.5C13.2 5.2 13 5 12.5 5zm0 5 3.5 7-7 0z" style="-inkscape-font-specification:Sans;baseline-shift:baseline;block-progression:tb;direction:ltr;fill:none;font-family:Sans;font-size:medium;letter-spacing:normal;line-height:normal;opacity:0.3;stroke-linecap:round;stroke-linejoin:round;stroke-width:0;stroke:#FFF;text-align:start;text-anchor:start;text-decoration:none;text-indent:0;text-transform:none;word-spacing:normal;writing-mode:lr-tb"/><path d="M12.5 5C12 5 11.8 5.2 11.6 5.5L5.4 17 4.1 17C3.5 17 3 17.4 3 18c0 0.6 0.5 1 1.1 1L6 19l13 0 1.9 0C21.5 19 22 18.6 22 18 22 17.4 21.5 17 20.9 17L19.6 17 13.4 5.5C13.2 5.2 13 5 12.5 5zm0 5 3.5 7-7 0z" transform="translate(0,1004.3622)" style="-inkscape-font-specification:Sans;baseline-shift:baseline;block-progression:tb;direction:ltr;fill:#FFF;font-family:Sans;font-size:medium;letter-spacing:normal;line-height:normal;text-align:start;text-anchor:start;text-decoration:none;text-indent:0;text-transform:none;word-spacing:normal;writing-mode:lr-tb"/></g><rect width="24" height="24" x="162" y="1218.4" style="fill:none;opacity:0.5"/></g></g></svg>