<?xml version="1.0" encoding="utf-8"?>
<!-- Generator: Adobe Illustrator 16.0.0, SVG Export Plug-In . SVG Version: 6.00 Build 0)  -->
<!DOCTYPE svg PUBLIC "-//W3C//DTD SVG 1.1//EN" "http://www.w3.org/Graphics/SVG/1.1/DTD/svg11.dtd">
<svg version="1.1" id="Layer_1" xmlns="http://www.w3.org/2000/svg" xmlns:xlink="http://www.w3.org/1999/xlink" x="0px" y="0px"
	 width="24px" height="24px" viewBox="0 0 24 24" enable-background="new 0 0 24 24" xml:space="preserve">
<path fill="#FFFFFF" d="M13.552,4.277c1.041,0.08,1.951-0.698,2.032-1.733c0.081-1.047-0.697-1.951-1.738-2.038
	c-1.035-0.082-1.945,0.698-2.033,1.739C11.73,3.285,12.512,4.195,13.552,4.277z M11.95,5.24c0.375-0.262,0.829-0.436,1.321-0.399
	c0.653,0.056,1.189,0.455,1.508,0.947l1.908,3.784l2.599,1.789c0.226,0.168,0.354,0.449,0.337,0.742
	c-0.037,0.473-0.448,0.823-0.922,0.786c-0.139-0.014-0.25-0.062-0.387-0.125l-2.836-1.958c-0.088-0.07-0.162-0.156-0.213-0.25
	l-0.717-1.414l-0.854,3.77l3.354,3.957c0.068,0.127,0.124,0.264,0.148,0.406l0.91,4.787c-0.006,0.105,0.014,0.168,0.006,0.262
	c-0.055,0.705-0.672,1.229-1.377,1.172c-0.579-0.043-1.016-0.479-1.152-1.01l-0.859-4.482l-2.719-2.984l-0.636,2.904
	c-0.019,0.137-0.2,0.424-0.255,0.543l-2.612,4.406c-0.262,0.404-0.698,0.66-1.196,0.623c-0.705-0.057-1.234-0.674-1.179-1.377
	c0.013-0.201,0.101-0.406,0.174-0.549l2.431-4.082l2.279-8.907L11.95,5.24z M9.771,11.175c-0.146,0.559-0.715,0.893-1.272,0.747
	l-0.831-0.216c-0.559-0.145-0.893-0.715-0.748-1.273l1.467-5.641C8.532,4.234,9.102,3.9,9.66,4.045l0.831,0.216
	c0.558,0.146,0.892,0.715,0.747,1.273L9.771,11.175z"/>
</svg>
